<svg width="20" height="18" viewBox="0 0 20 18" fill="none" xmlns="http://www.w3.org/2000/svg">
<g clip-path="url(#clip0_1_103)">
<path d="M0.177734 1.00195C0.177734 0.720703 0.277344 0.483398 0.476562 0.290039C0.675781 0.0966797 0.910156 0 1.17969 0H7.19141C7.46094 0 7.69238 0.0966797 7.88574 0.290039C8.0791 0.483398 8.17578 0.720703 8.17578 1.00195V6.99609C8.17578 7.27734 8.0791 7.51465 7.88574 7.70801C7.69238 7.90137 7.46094 7.99805 7.19141 7.99805H1.17969C0.910156 7.99805 0.675781 7.90137 0.476562 7.70801C0.277344 7.51465 0.177734 7.27734 0.177734 6.99609V1.00195ZM10.1797 1.00195C10.1797 0.720703 10.2793 0.483398 10.4785 0.290039C10.6777 0.0966797 10.9121 0 11.1816 0H17.1758C17.457 0 17.6943 0.0966797 17.8877 0.290039C18.0811 0.483398 18.1777 0.720703 18.1777 1.00195V6.99609C18.1777 7.27734 18.0811 7.51465 17.8877 7.70801C17.6943 7.90137 17.457 7.99805 17.1758 7.99805H11.1816C10.9121 7.99805 10.6777 7.90137 10.4785 7.70801C10.2793 7.51465 10.1797 7.27734 10.1797 6.99609V1.00195ZM0.177734 11.0039C0.177734 10.7227 0.277344 10.4854 0.476562 10.292C0.675781 10.0986 0.910156 10.002 1.17969 10.002H7.19141C7.46094 10.002 7.69238 10.0986 7.88574 10.292C8.0791 10.4854 8.17578 10.7227 8.17578 11.0039V16.998C8.17578 17.2793 8.0791 17.5166 7.88574 17.71C7.69238 17.9033 7.46094 18 7.19141 18H1.17969C0.910156 18 0.675781 17.9033 0.476562 17.71C0.277344 17.5166 0.177734 17.2793 0.177734 16.998V11.0039ZM10.1797 11.0039C10.1797 10.7227 10.2793 10.4854 10.4785 10.292C10.6777 10.0986 10.9121 10.002 11.1816 10.002H17.1758C17.457 10.002 17.6943 10.0986 17.8877 10.292C18.0811 10.4854 18.1777 10.7227 18.1777 11.0039V16.998C18.1777 17.2793 18.0811 17.5166 17.8877 17.71C17.6943 17.9033 17.457 18 17.1758 18H11.1816C10.9121 18 10.6777 17.9033 10.4785 17.71C10.2793 17.5166 10.1797 17.2793 10.1797 16.998V11.0039Z" fill="#7A7D9D"/>
</g>
<defs>
<clipPath id="clip0_1_103">
<rect width="19.13" height="18" fill="white" transform="matrix(1 0 0 -1 0 18)"/>
</clipPath>
</defs>
</svg>
