<svg width="226" height="196" viewBox="0 0 226 196" fill="none" xmlns="http://www.w3.org/2000/svg">
<path d="M33.2419 57.5302C33.0588 57.5302 32.882 57.4644 32.7437 57.3446C32.6053 57.2249 32.5146 57.0593 32.4884 56.8782C32.4621 56.6972 32.5019 56.5127 32.6005 56.3585C32.6991 56.2044 32.8499 56.091 33.0253 56.0389C33.5213 55.8922 34.0137 55.7525 34.5096 55.6163C34.7047 55.5636 34.9126 55.5903 35.0878 55.6909C35.263 55.7914 35.391 55.9574 35.4439 56.1524C35.4967 56.3474 35.4698 56.5554 35.3694 56.7306C35.2688 56.9058 35.1027 57.0339 34.9078 57.0867C34.4258 57.2194 33.9438 57.3556 33.4619 57.4988C33.3904 57.5195 33.3163 57.53 33.2419 57.5302Z" fill="#FF667C"/>
<path d="M129.639 68.655C128.94 68.655 128.242 68.655 127.543 68.6305C127.341 68.6254 127.149 68.5403 127.01 68.3939C126.871 68.2476 126.796 68.0519 126.801 67.85C126.806 67.648 126.892 67.4564 127.038 67.3172C127.184 67.178 127.379 67.1027 127.581 67.1078C128.587 67.1323 129.597 67.1392 130.599 67.1288C130.801 67.1288 130.995 67.209 131.137 67.3517C131.28 67.4945 131.361 67.6882 131.361 67.8901C131.361 68.0921 131.28 68.2857 131.137 68.4285C130.995 68.5712 130.801 68.6515 130.599 68.6515L129.639 68.655ZM133.665 68.5572C133.463 68.5618 133.268 68.4861 133.122 68.3466C132.976 68.207 132.891 68.0152 132.887 67.8133C132.882 67.6113 132.958 67.4158 133.097 67.2698C133.237 67.1237 133.428 67.039 133.63 67.0345C134.629 66.9855 135.642 66.9192 136.641 66.8319C136.843 66.8143 137.043 66.8775 137.198 67.0074C137.352 67.1374 137.45 67.3237 137.467 67.5252C137.485 67.7266 137.422 67.9268 137.292 68.0817C137.161 68.2366 136.975 68.3335 136.774 68.3511C135.755 68.4384 134.72 68.5048 133.704 68.5572H133.665ZM124.533 68.4943H124.484C123.485 68.4314 122.454 68.3511 121.425 68.2499C121.325 68.2402 121.229 68.2111 121.14 68.1641C121.052 68.1171 120.974 68.0532 120.91 67.976C120.847 67.8989 120.799 67.8099 120.77 67.7142C120.74 67.6186 120.73 67.5182 120.74 67.4186C120.749 67.3191 120.779 67.2225 120.826 67.1342C120.872 67.0459 120.936 66.9678 121.014 66.9042C121.091 66.8407 121.18 66.7929 121.275 66.7637C121.371 66.7345 121.471 66.7244 121.571 66.7341C122.584 66.8319 123.594 66.9122 124.579 66.9751C124.772 66.9927 124.951 67.0832 125.079 67.2284C125.207 67.3735 125.276 67.5623 125.27 67.7561C125.264 67.9499 125.184 68.1343 125.048 68.2715C124.911 68.4086 124.727 68.4884 124.533 68.4943ZM139.735 68.0403C139.543 68.0374 139.359 67.962 139.221 67.8293C139.082 67.6966 138.998 67.5163 138.987 67.3246C138.975 67.1329 139.037 66.9438 139.159 66.7955C139.281 66.6471 139.455 66.5503 139.645 66.5246C140.633 66.4058 141.642 66.2661 142.637 66.1125C142.737 66.097 142.837 66.1013 142.935 66.1249C143.031 66.1486 143.123 66.1912 143.205 66.2502C143.285 66.3092 143.354 66.3835 143.405 66.469C143.457 66.5544 143.492 66.6492 143.507 66.748C143.523 66.8469 143.519 66.9478 143.495 67.045C143.471 67.1422 143.428 67.2337 143.37 67.3145C143.311 67.3953 143.236 67.4636 143.151 67.5156C143.065 67.5676 142.971 67.6024 142.872 67.6177C141.855 67.7749 140.833 67.9146 139.83 68.0368L139.735 68.0403ZM118.47 67.9181H118.386C117.397 67.7923 116.374 67.6491 115.348 67.4919C115.249 67.4768 115.154 67.4424 115.068 67.3905C114.983 67.3388 114.908 67.2707 114.849 67.1901C114.79 67.1095 114.747 67.018 114.723 66.9208C114.699 66.8237 114.695 66.723 114.71 66.6241C114.725 66.5253 114.76 66.4304 114.811 66.3449C114.863 66.2593 114.932 66.1848 115.012 66.1257C115.093 66.0665 115.184 66.0237 115.281 65.9998C115.378 65.9761 115.479 65.9716 115.578 65.9867C116.591 66.1404 117.6 66.2836 118.574 66.4058C118.765 66.4317 118.938 66.5287 119.061 66.6775C119.183 66.8262 119.244 67.0156 119.232 67.2075C119.22 67.3994 119.135 67.5798 118.996 67.7122C118.857 67.8446 118.673 67.9194 118.481 67.9215L118.47 67.9181ZM145.757 67.1113C145.564 67.115 145.377 67.0458 145.234 66.9176C145.091 66.7893 145.001 66.6116 144.983 66.4201C144.966 66.2286 145.021 66.0375 145.139 65.8851C145.256 65.7328 145.427 65.6306 145.617 65.5991C146.598 65.4139 147.593 65.2114 148.575 64.9914C148.772 64.945 148.98 64.979 149.152 65.0857C149.324 65.1926 149.447 65.3633 149.493 65.5606C149.54 65.7579 149.505 65.9655 149.399 66.1377C149.292 66.3101 149.121 66.4328 148.924 66.4791C147.925 66.6992 146.913 66.9087 145.917 67.0973C145.864 67.1082 145.81 67.1129 145.757 67.1113ZM112.448 66.9995C112.404 67.003 112.358 67.003 112.312 66.9995C111.335 66.8249 110.322 66.6503 109.302 66.4303C109.104 66.3905 108.929 66.2734 108.818 66.1052C108.706 65.9369 108.665 65.7309 108.705 65.5327C108.744 65.3344 108.862 65.1602 109.03 65.0482C109.198 64.9362 109.404 64.8957 109.602 64.9355C110.608 65.138 111.611 65.3267 112.582 65.5013C112.771 65.5329 112.941 65.6346 113.058 65.7861C113.175 65.9377 113.231 66.1279 113.215 66.3187C113.198 66.5096 113.109 66.6871 112.968 66.816C112.826 66.9447 112.64 67.0153 112.448 67.0135V66.9995ZM106.47 65.8051C106.414 65.806 106.36 65.8002 106.306 65.7876C105.31 65.5711 104.315 65.3441 103.323 65.1136C103.126 65.0673 102.956 64.9446 102.849 64.7727C102.743 64.6008 102.709 64.3936 102.755 64.1968C102.802 63.9999 102.924 63.8296 103.096 63.7232C103.268 63.6168 103.475 63.583 103.672 63.6293C104.66 63.8598 105.645 64.0833 106.634 64.2998C106.817 64.3398 106.979 64.4461 107.089 64.5983C107.199 64.7505 107.249 64.938 107.229 65.1245C107.209 65.3112 107.121 65.4839 106.981 65.6094C106.842 65.7351 106.661 65.8047 106.473 65.8051H106.47ZM151.704 65.7876C151.519 65.7869 151.341 65.719 151.203 65.5964C151.063 65.4737 150.975 65.3049 150.952 65.1213C150.928 64.9379 150.973 64.7522 151.076 64.5991C151.181 64.446 151.337 64.3358 151.515 64.2894C152.483 64.0414 153.464 63.7725 154.432 63.493C154.626 63.437 154.834 63.4604 155.011 63.558C155.188 63.6556 155.319 63.8194 155.374 64.0135C155.431 64.2075 155.407 64.4159 155.31 64.5927C155.212 64.7695 155.048 64.9004 154.854 64.9565C153.873 65.2393 152.874 65.5117 151.893 65.7632C151.832 65.7799 151.768 65.7881 151.704 65.7876ZM100.532 64.4186C100.472 64.4185 100.41 64.4114 100.351 64.3976C99.3636 64.1532 98.3752 63.904 97.3857 63.6502C97.2086 63.5836 97.0626 63.4534 96.9763 63.285C96.89 63.1167 96.8695 62.9221 96.9188 62.7395C96.968 62.5567 97.0835 62.3989 97.2428 62.2967C97.4021 62.1947 97.5937 62.1555 97.7804 62.1869C98.7653 62.4383 99.7466 62.6864 100.731 62.9273C100.913 62.9708 101.072 63.0796 101.179 63.2331C101.285 63.3864 101.332 63.5736 101.31 63.7592C101.287 63.9446 101.198 64.1154 101.058 64.2389C100.917 64.3624 100.737 64.4302 100.55 64.4291L100.532 64.4186ZM157.557 64.0973C157.375 64.0987 157.198 64.0347 157.059 63.9166C156.92 63.7986 156.828 63.6345 156.799 63.4542C156.771 63.274 156.808 63.0895 156.905 62.9345C157.001 62.7795 157.149 62.6641 157.323 62.6095C158.277 62.3021 159.241 61.9774 160.191 61.6421C160.286 61.6056 160.387 61.5884 160.489 61.5917C160.591 61.595 160.69 61.6187 160.783 61.6613C160.875 61.704 160.959 61.7647 161.028 61.8399C161.095 61.9152 161.148 62.0033 161.183 62.0993C161.217 62.1954 161.231 62.2971 161.225 62.3987C161.219 62.5003 161.192 62.5997 161.146 62.6908C161.101 62.7821 161.039 62.8633 160.961 62.9296C160.884 62.9961 160.794 63.0463 160.697 63.0775C159.737 63.4267 158.759 63.748 157.791 64.0588C157.716 64.0835 157.637 64.0965 157.557 64.0973ZM94.6371 62.9098C94.5712 62.9103 94.5054 62.9021 94.4415 62.8854L91.4939 62.1066C91.3083 62.0469 91.1526 61.9184 91.059 61.7474C90.9654 61.5765 90.9408 61.376 90.9905 61.1876C91.0402 60.9991 91.1604 60.8368 91.3261 60.7342C91.4919 60.6316 91.6907 60.5966 91.8816 60.6362L94.8292 61.4116C95.0085 61.4581 95.1647 61.5686 95.2685 61.722C95.3723 61.8755 95.4165 62.0615 95.393 62.2453C95.3694 62.4291 95.2796 62.5979 95.1406 62.7203C95.0014 62.8427 94.8224 62.91 94.6371 62.9098ZM163.31 62.0611C163.131 62.0621 162.958 62.0002 162.82 61.8863C162.683 61.7724 162.59 61.6138 162.557 61.4382C162.525 61.2626 162.555 61.0811 162.642 60.9255C162.731 60.77 162.87 60.6503 163.037 60.5874C163.963 60.238 164.909 59.8469 165.831 59.4557C165.925 59.406 166.027 59.3762 166.133 59.3684C166.238 59.3605 166.344 59.3747 166.444 59.4101C166.543 59.4454 166.635 59.5011 166.712 59.5736C166.788 59.6462 166.85 59.7339 166.891 59.8313C166.931 59.9287 166.952 60.0337 166.95 60.1394C166.949 60.2451 166.926 60.3494 166.882 60.4455C166.837 60.5416 166.773 60.6275 166.695 60.6975C166.615 60.7676 166.523 60.8206 166.421 60.8528C165.475 61.2474 164.518 61.6351 163.576 62.0017C163.488 62.0387 163.395 62.0589 163.299 62.0611H163.31ZM88.7418 61.3627C88.6758 61.363 88.6101 61.3547 88.5462 61.3382C87.566 61.0775 86.5846 60.819 85.602 60.5629C85.5053 60.5376 85.4144 60.4936 85.3347 60.4332C85.2549 60.373 85.1878 60.2975 85.1372 60.2113C85.0867 60.1249 85.0535 60.0296 85.0398 59.9305C85.0261 59.8314 85.032 59.7306 85.0572 59.6339C85.0825 59.5371 85.1264 59.4463 85.1868 59.3665C85.2471 59.2868 85.3226 59.2196 85.4089 59.1691C85.4952 59.1185 85.5906 59.0854 85.6896 59.0717C85.7887 59.058 85.8895 59.0638 85.9863 59.0891L88.9374 59.8643C89.117 59.911 89.2734 60.0216 89.3772 60.1756C89.481 60.3294 89.525 60.5158 89.501 60.6999C89.477 60.8839 89.3865 61.0528 89.2467 61.1749C89.1069 61.2969 88.9274 61.3637 88.7418 61.3627ZM82.8465 59.8259C82.7828 59.8264 82.7193 59.8183 82.6578 59.8016C81.673 59.5535 80.6917 59.3056 79.7068 59.0646C79.603 59.0485 79.5036 59.0112 79.415 58.9549C79.3264 58.8986 79.2503 58.8246 79.1917 58.7374C79.133 58.6502 79.0931 58.5519 79.0743 58.4487C79.0555 58.3454 79.0582 58.2392 79.0824 58.1371C79.1066 58.0349 79.1516 57.9388 79.2147 57.8548C79.2778 57.7709 79.3575 57.7009 79.4489 57.6493C79.5404 57.5976 79.6415 57.5655 79.746 57.5548C79.8505 57.5442 79.956 57.5552 80.056 57.5873C81.0444 57.8283 82.0292 58.0763 83.0176 58.3277C83.1964 58.3742 83.3522 58.4839 83.456 58.6367C83.5598 58.7894 83.6046 58.9747 83.5819 59.1581C83.5593 59.3413 83.4708 59.5102 83.3329 59.633C83.1951 59.7559 83.0172 59.8245 82.8326 59.8259H82.8465ZM168.929 59.7073C168.754 59.708 168.585 59.6488 168.449 59.5394C168.312 59.4301 168.218 59.2772 168.181 59.1065C168.144 58.9358 168.167 58.7576 168.247 58.6019C168.325 58.4461 168.456 58.3221 168.615 58.2509C169.53 57.8353 170.449 57.4022 171.353 56.9622C171.534 56.8737 171.744 56.861 171.935 56.9268C172.126 56.9926 172.282 57.1316 172.371 57.3132C172.459 57.4946 172.472 57.704 172.407 57.8949C172.341 58.0858 172.202 58.2427 172.02 58.3312C171.105 58.7783 170.172 59.2182 169.226 59.6374C169.129 59.6794 169.024 59.6997 168.918 59.6968L168.929 59.7073ZM76.9268 58.3836C76.8679 58.3835 76.8093 58.3764 76.7522 58.3626C75.7673 58.1356 74.7789 57.9121 73.7905 57.6991C73.5981 57.6517 73.4317 57.5312 73.3268 57.3631C73.2218 57.1951 73.1865 56.9927 73.2282 56.7991C73.2701 56.6054 73.3857 56.4356 73.5507 56.3259C73.7158 56.2162 73.917 56.175 74.1118 56.2113C75.106 56.4255 76.1014 56.6479 77.0979 56.8783C77.2822 56.9184 77.445 57.0255 77.5549 57.1789C77.6648 57.3322 77.7138 57.5209 77.6925 57.7083C77.6712 57.8957 77.581 58.0685 77.4396 58.1933C77.2981 58.318 77.1154 58.3859 76.9268 58.3836ZM70.9686 57.1053C70.9198 57.1105 70.8707 57.1105 70.8219 57.1053C69.8161 56.9097 68.8138 56.7247 67.8428 56.557C67.6436 56.5228 67.4662 56.4108 67.3496 56.2457C67.2331 56.0807 67.1869 55.8761 67.2211 55.6769C67.2554 55.4777 67.3674 55.3004 67.5324 55.1838C67.6975 55.0672 67.9021 55.021 68.1012 55.0553C69.0826 55.2264 70.0989 55.4045 71.1152 55.614C71.2133 55.6328 71.3067 55.6708 71.3899 55.7259C71.4732 55.7809 71.5448 55.8517 71.6007 55.9345C71.6565 56.0173 71.6954 56.1102 71.7152 56.2081C71.735 56.3059 71.7353 56.4067 71.716 56.5046C71.6755 56.6745 71.5784 56.8255 71.4407 56.9328C71.3029 57.0401 71.1326 57.0973 70.958 57.0949L70.9686 57.1053ZM174.409 57.032C174.239 57.0309 174.074 56.9732 173.942 56.8678C173.808 56.7625 173.714 56.6156 173.674 56.4507C173.633 56.2857 173.65 56.112 173.72 55.9572C173.789 55.8025 173.909 55.6755 174.059 55.5966C174.954 55.1286 175.848 54.6467 176.725 54.1577C176.812 54.1038 176.91 54.0682 177.011 54.0529C177.113 54.0377 177.216 54.043 177.314 54.0688C177.414 54.0946 177.508 54.1403 177.589 54.2028C177.67 54.2655 177.737 54.344 177.788 54.4336C177.838 54.5231 177.87 54.6219 177.881 54.7239C177.892 54.826 177.883 54.9291 177.852 55.0273C177.822 55.1255 177.773 55.2167 177.706 55.2954C177.641 55.374 177.56 55.4384 177.469 55.4848C176.577 55.9808 175.67 56.4732 174.766 56.9446C174.651 57.0014 174.525 57.0278 174.398 57.0216L174.409 57.032ZM37.6818 56.4033C37.4941 56.403 37.3131 56.3334 37.1737 56.2077C37.0342 56.0821 36.9461 55.9094 36.9262 55.7228C36.9063 55.5361 36.956 55.3488 37.0658 55.1966C37.1756 55.0443 37.3377 54.9381 37.5211 54.8981C38.5269 54.6816 39.5503 54.486 40.5526 54.3218C40.6515 54.3058 40.7524 54.3094 40.85 54.3324C40.9474 54.3554 41.0394 54.3973 41.1206 54.4558C41.2019 54.5143 41.2707 54.5884 41.3233 54.6735C41.3761 54.7587 41.4114 54.8534 41.4274 54.9522C41.4435 55.051 41.4399 55.1521 41.417 55.2496C41.394 55.347 41.352 55.4389 41.2935 55.5202C41.2349 55.6015 41.161 55.6703 41.0758 55.723C40.9906 55.7757 40.8959 55.811 40.797 55.827C39.8191 55.9842 38.8238 56.1764 37.8424 56.3859C37.786 56.3958 37.7284 56.3981 37.6713 56.3929L37.6818 56.4033ZM64.965 56.0541H64.8533C63.8405 55.904 62.8311 55.7712 61.8532 55.6524C61.6527 55.6284 61.4699 55.5256 61.3452 55.3668C61.2204 55.208 61.1638 55.006 61.1879 54.8056C61.212 54.605 61.3147 54.4222 61.4735 54.2975C61.6324 54.1727 61.8343 54.1162 62.0349 54.1403C63.0267 54.2589 64.05 54.3952 65.0767 54.5489C65.2689 54.5749 65.4437 54.6733 65.5657 54.8239C65.6878 54.9745 65.7478 55.1659 65.7336 55.3592C65.7194 55.5525 65.6319 55.7332 65.489 55.8643C65.3463 55.9953 65.1588 56.0669 64.965 56.0645V56.0541ZM43.6958 55.415C43.4991 55.418 43.3088 55.3449 43.1648 55.2108C43.0209 55.0767 42.9345 54.8921 42.9237 54.6956C42.9128 54.4992 42.9784 54.3062 43.1067 54.1571C43.2351 54.0079 43.4162 53.9143 43.612 53.8958C44.6213 53.7875 45.655 53.7002 46.6819 53.6338C46.7829 53.6252 46.8846 53.6367 46.981 53.6679C47.0775 53.699 47.1667 53.7492 47.2435 53.8152C47.3203 53.8813 47.3832 53.9621 47.4285 54.0528C47.4737 54.1435 47.5003 54.2423 47.5068 54.3435C47.5134 54.4446 47.4996 54.5461 47.4664 54.6418C47.4332 54.7376 47.3812 54.8258 47.3135 54.9012C47.2457 54.9766 47.1636 55.0377 47.0719 55.081C46.9803 55.1241 46.8809 55.1487 46.7797 55.1531C45.7738 55.2159 44.7645 55.3032 43.7761 55.4115L43.6958 55.415ZM58.916 55.3347H58.8462C57.8334 55.2473 56.8171 55.174 55.8322 55.1216C55.6307 55.1108 55.4419 55.0205 55.307 54.8705C55.1722 54.7206 55.1022 54.5232 55.1127 54.3218C55.1167 54.2216 55.1407 54.1232 55.1833 54.0325C55.2259 53.9418 55.2863 53.8605 55.3608 53.7934C55.4353 53.7264 55.5226 53.6748 55.6173 53.6421C55.7121 53.6093 55.8124 53.5957 55.9125 53.6024C56.9184 53.6547 57.9486 53.7281 58.979 53.8189C59.1729 53.8374 59.3523 53.9295 59.4804 54.0764C59.6085 54.2232 59.6754 54.4137 59.6673 54.6084C59.6593 54.803 59.5769 54.9872 59.4371 55.1229C59.2974 55.2587 59.1109 55.3358 58.916 55.3381V55.3347ZM49.7762 55.0204C49.5743 55.0204 49.3806 54.9401 49.2379 54.7973C49.0951 54.6545 49.0149 54.4609 49.0149 54.2589C49.0149 54.0571 49.0951 53.8634 49.2379 53.7206C49.3806 53.5778 49.5743 53.4976 49.7762 53.4976C50.8054 53.4766 51.8321 53.4766 52.8566 53.4976C53.0579 53.5013 53.2496 53.5846 53.3897 53.7292C53.5298 53.8738 53.6068 54.0681 53.604 54.2695C53.604 54.3699 53.5839 54.4693 53.5449 54.5617C53.5059 54.6542 53.4487 54.7379 53.3767 54.8079C53.3047 54.878 53.2194 54.9328 53.1259 54.9693C53.0324 55.0057 52.9325 55.0232 52.8321 55.0204C51.8263 55.0017 50.8193 55.0017 49.8111 55.0204H49.7762ZM179.731 54.0459C179.564 54.048 179.4 53.9944 179.267 53.8935C179.132 53.7926 179.036 53.6502 178.991 53.4885C178.947 53.3267 178.957 53.1549 179.021 52.9998C179.085 52.8448 179.199 52.7152 179.344 52.6315C180.2 52.1216 181.069 51.5837 181.925 51.0494C182.009 50.9905 182.104 50.9493 182.206 50.9283C182.306 50.9074 182.41 50.907 182.511 50.9273C182.611 50.9475 182.707 50.9881 182.792 51.0464C182.876 51.1046 182.949 51.1796 183.003 51.2664C183.058 51.3534 183.095 51.4505 183.112 51.5521C183.129 51.6535 183.124 51.7574 183.099 51.8572C183.074 51.957 183.029 52.0508 182.968 52.1329C182.906 52.2149 182.827 52.2835 182.739 52.3346C181.869 52.883 180.992 53.4243 180.119 53.9412C179.999 54.0124 179.861 54.0498 179.721 54.0494L179.731 54.0459ZM184.89 50.7909C184.726 50.7924 184.566 50.7408 184.432 50.6436C184.3 50.5464 184.202 50.4089 184.155 50.2517C184.107 50.0945 184.111 49.9261 184.167 49.7714C184.222 49.6168 184.327 49.4844 184.464 49.394C185.299 48.8316 186.136 48.2554 186.957 47.6722C187.038 47.6078 187.131 47.5605 187.232 47.5334C187.331 47.5062 187.436 47.4996 187.538 47.5142C187.641 47.5287 187.739 47.5639 187.827 47.6177C187.915 47.6717 187.992 47.7429 188.052 47.8273C188.112 47.9116 188.154 48.0074 188.176 48.1086C188.197 48.2098 188.198 48.3143 188.178 48.4159C188.158 48.5173 188.117 48.6137 188.059 48.699C188 48.7843 187.925 48.8568 187.838 48.912C187.006 49.5022 186.157 50.0924 185.313 50.6582C185.185 50.7462 185.034 50.7937 184.879 50.7944L184.89 50.7909ZM189.859 47.2566C189.7 47.2563 189.545 47.2059 189.416 47.1127C189.286 47.0194 189.189 46.8878 189.138 46.7365C189.088 46.5852 189.086 46.4219 189.133 46.2695C189.181 46.1172 189.274 45.9836 189.402 45.8875C190.209 45.2799 191.016 44.6547 191.798 44.0295C191.956 43.9035 192.158 43.8455 192.358 43.8681C192.559 43.8906 192.743 43.992 192.868 44.15C192.994 44.3079 193.052 44.5094 193.029 44.7102C193.007 44.9109 192.906 45.0945 192.748 45.2205C191.952 45.8525 191.134 46.4882 190.303 47.1029C190.173 47.204 190.014 47.2594 189.85 47.2601L189.859 47.2566Z" fill="#FF667C"/>
<path d="M194.626 43.4499C194.469 43.4505 194.317 43.4029 194.188 43.3136C194.059 43.2242 193.961 43.0974 193.908 42.9504C193.854 42.8034 193.847 42.6434 193.887 42.4922C193.928 42.3411 194.013 42.2059 194.133 42.1054C194.52 41.7805 194.902 41.4522 195.283 41.124C195.438 41.0102 195.63 40.9594 195.821 40.9817C196.012 41.0041 196.187 41.0978 196.312 41.2442C196.437 41.3906 196.501 41.5787 196.493 41.7709C196.484 41.963 196.404 42.1449 196.268 42.28C195.883 42.6153 195.496 42.947 195.105 43.2753C194.97 43.3872 194.801 43.4489 194.626 43.4499Z" fill="#FF667C"/>
<path d="M186.785 83.6523L18.5 83.6558L102.704 150.569L186.785 83.6523Z" fill="#E03F3F"/>
<path d="M17.834 83.9095H187.568L104.839 30.3035C104.204 29.8913 103.463 29.6719 102.707 29.6719C101.95 29.6719 101.209 29.8913 100.574 30.3035L17.834 83.9095Z" fill="#E03F3F"/>
<path d="M142.009 37.4922H40.2799C39.5865 37.4931 38.9215 37.769 38.4312 38.2594C37.9408 38.7498 37.665 39.4146 37.6641 40.108V161.723H167.748V63.2352L142.009 37.4922Z" fill="white"/>
<path d="M66.2459 76.2342H139.165C139.685 76.2342 140.185 76.0274 140.553 75.6593C140.921 75.2912 141.128 74.7919 141.128 74.2714C141.128 73.7508 140.921 73.2516 140.553 72.8835C140.185 72.5154 139.685 72.3086 139.165 72.3086H66.2459C65.7253 72.3086 65.2262 72.5154 64.8581 72.8835C64.4899 73.2516 64.2832 73.7508 64.2832 74.2714C64.2832 74.7919 64.4899 75.2912 64.8581 75.6593C65.2262 76.0274 65.7253 76.2342 66.2459 76.2342Z" fill="#2D2452"/>
<path d="M139.166 87.2674H66.2466C65.9822 87.2562 65.7182 87.2986 65.4706 87.3922C65.2229 87.4857 64.9967 87.6283 64.8056 87.8115C64.6146 87.9947 64.4624 88.2147 64.3586 88.4582C64.2547 88.7017 64.2012 88.9636 64.2012 89.2284C64.2012 89.4931 64.2547 89.7551 64.3586 89.9986C64.4624 90.2421 64.6146 90.462 64.8056 90.6453C64.9967 90.8284 65.2229 90.9711 65.4706 91.0646C65.7182 91.1581 65.9822 91.2005 66.2466 91.1894H139.166C139.431 91.2005 139.694 91.1581 139.942 91.0646C140.19 90.9711 140.416 90.8284 140.608 90.6453C140.799 90.462 140.95 90.2421 141.054 89.9986C141.158 89.7551 141.212 89.4931 141.212 89.2284C141.212 88.9636 141.158 88.7017 141.054 88.4582C140.95 88.2147 140.799 87.9947 140.608 87.8115C140.416 87.6283 140.19 87.4857 139.942 87.3922C139.694 87.2986 139.431 87.2562 139.166 87.2674Z" fill="#2D2452"/>
<path d="M107.783 102.224H66.2466C65.9822 102.213 65.7182 102.256 65.4706 102.35C65.2229 102.443 64.9967 102.585 64.8056 102.769C64.6146 102.952 64.4624 103.172 64.3586 103.415C64.2547 103.659 64.2012 103.921 64.2012 104.185C64.2012 104.45 64.2547 104.713 64.3586 104.956C64.4624 105.199 64.6146 105.419 64.8056 105.602C64.9967 105.786 65.2229 105.928 65.4706 106.022C65.7182 106.115 65.9822 106.158 66.2466 106.146H107.783C108.289 106.125 108.766 105.91 109.116 105.544C109.468 105.178 109.663 104.692 109.663 104.185C109.663 103.68 109.468 103.192 109.116 102.827C108.766 102.462 108.289 102.246 107.783 102.224Z" fill="#2D2452"/>
<g opacity="0.05">
<path d="M88.9339 142.2L100.766 137.593L19.5977 83.9102L88.9339 142.2Z" fill="black"/>
</g>
<g opacity="0.05">
<path d="M104.646 137.593L116.479 142.2L185.815 83.9102L104.646 137.593Z" fill="black"/>
</g>
<path d="M102.708 145.416L19.3846 83.91C19.1904 83.7627 18.9588 83.6726 18.716 83.6501C18.4733 83.6276 18.2292 83.6734 18.0111 83.7824C17.7931 83.8914 17.6098 84.0593 17.4823 84.267C17.3546 84.4747 17.2878 84.714 17.2891 84.9578V187.536C17.2891 189.616 18.1155 191.611 19.5866 193.082C21.0577 194.553 23.0528 195.38 25.1332 195.38H180.251C182.333 195.38 184.327 194.553 185.8 193.083C187.271 191.611 188.098 189.616 188.099 187.536V84.9613C188.1 84.7175 188.034 84.4782 187.906 84.2705C187.779 84.0627 187.595 83.8949 187.377 83.7859C187.159 83.6769 186.915 83.631 186.672 83.6536C186.43 83.6761 186.198 83.7662 186.004 83.9135L102.708 145.416Z" fill="#E03F3F"/>
<g opacity="0.1">
<path d="M86.9531 133.801L19.8242 193.316C21.2704 194.648 23.1661 195.387 25.1327 195.384H100.573V143.828L86.9531 133.801Z" fill="black"/>
</g>
<g opacity="0.1">
<path d="M118.468 133.801L185.598 193.316C184.152 194.648 182.258 195.387 180.292 195.384H104.883V143.828L118.468 133.801Z" fill="black"/>
</g>
<path d="M19.8379 193.316C21.284 194.649 23.1797 195.388 25.1464 195.384H180.265C182.232 195.388 184.127 194.649 185.574 193.316L107.663 129.84C106.264 128.698 104.513 128.074 102.707 128.074C100.901 128.074 99.1507 128.698 97.7516 129.84L19.8379 193.316Z" fill="#E03F3F"/>
<path d="M142.008 37.4922L139.989 62.8301C139.962 63.2096 140.017 63.5904 140.152 63.9462C140.286 64.302 140.497 64.6242 140.768 64.8902C141.041 65.1561 141.367 65.3597 141.727 65.4865C142.085 65.6132 142.467 65.6602 142.846 65.6242L167.747 63.2144L142.008 37.4922Z" fill="#D6D7E3"/>
<path d="M144.624 63.2357H167.747L142.008 37.4961V60.6162C142.008 61.3104 142.283 61.9761 142.774 62.4672C143.264 62.9583 143.93 63.2347 144.624 63.2357Z" fill="#F0F1F7"/>
<path d="M31.7899 57.9968C31.6093 57.9957 31.435 57.9304 31.2981 57.8127C31.1613 57.6949 31.0706 57.5324 31.0425 57.354C31.0144 57.1756 31.0505 56.9931 31.1445 56.839C31.2387 56.6848 31.3844 56.5691 31.5558 56.5125C32.0448 56.3518 32.5372 56.1981 33.0261 56.0515C33.2198 55.9936 33.4284 56.015 33.6062 56.111C33.7841 56.2069 33.9165 56.3696 33.9744 56.5632C34.0323 56.7567 34.0108 56.9654 33.9149 57.1432C33.819 57.321 33.6563 57.4534 33.4627 57.5113C32.9843 57.6545 32.5058 57.8047 32.0273 57.9583C31.9505 57.983 31.8704 57.996 31.7899 57.9968Z" fill="#FF667C"/>
<path d="M63.7985 114.245C63.6128 114.244 63.4338 114.175 63.295 114.052C63.1562 113.929 63.0671 113.758 63.0442 113.574C62.9115 112.471 62.7683 111.479 62.6146 110.561C62.5973 110.461 62.5996 110.36 62.6216 110.262C62.6436 110.164 62.6848 110.071 62.7428 109.989C62.8008 109.907 62.8746 109.837 62.9597 109.784C63.0448 109.73 63.1396 109.694 63.2388 109.677C63.3379 109.661 63.4393 109.664 63.5372 109.687C63.635 109.71 63.7274 109.752 63.809 109.811C63.8906 109.869 63.9597 109.943 64.0126 110.028C64.0653 110.114 64.1005 110.21 64.1163 110.309C64.277 111.255 64.4202 112.265 64.5564 113.389C64.5774 113.586 64.5209 113.783 64.399 113.939C64.277 114.095 64.0993 114.197 63.9033 114.224L63.7985 114.245ZM62.7508 108.182C62.5798 108.182 62.4138 108.124 62.2795 108.019C62.1452 107.913 62.0504 107.765 62.0104 107.599C61.7659 106.579 61.4865 105.608 61.1792 104.711C61.1138 104.52 61.1273 104.31 61.2163 104.129C61.3054 103.947 61.463 103.808 61.6542 103.743C61.8455 103.678 62.0548 103.691 62.2362 103.78C62.4177 103.869 62.5563 104.027 62.6215 104.218C62.9429 105.161 63.2362 106.177 63.4912 107.243C63.5175 107.354 63.5182 107.471 63.4932 107.583C63.4683 107.695 63.4184 107.8 63.3472 107.89C63.2761 107.981 63.1856 108.054 63.0823 108.104C62.979 108.155 62.8657 108.181 62.7508 108.182ZM16.6746 108.147C15.75 108.149 14.8269 108.071 13.9155 107.916C13.7164 107.882 13.539 107.77 13.4224 107.605C13.3058 107.44 13.2595 107.236 13.2938 107.037C13.328 106.837 13.4401 106.66 13.6051 106.543C13.7702 106.427 13.9747 106.38 14.1739 106.415C15.1356 106.579 16.1113 106.649 17.0867 106.621C17.187 106.617 17.2871 106.633 17.3813 106.668C17.4753 106.702 17.5613 106.756 17.6343 106.826C17.7072 106.894 17.7656 106.978 17.8059 107.07C17.8462 107.162 17.8676 107.261 17.869 107.361C17.8737 107.563 17.7985 107.758 17.6598 107.904C17.5212 108.052 17.3301 108.137 17.1286 108.143L16.6746 108.147ZM20.1671 107.798C19.9747 107.802 19.7881 107.732 19.6447 107.604C19.5015 107.476 19.4119 107.298 19.3942 107.106C19.3765 106.915 19.4319 106.724 19.5494 106.572C19.6668 106.419 19.8376 106.317 20.0273 106.286C21.0013 106.098 21.9615 105.844 22.9016 105.527C22.9965 105.496 23.0968 105.484 23.1966 105.491C23.2965 105.498 23.3939 105.524 23.4833 105.569C23.5729 105.614 23.6527 105.676 23.7183 105.751C23.7839 105.827 23.8338 105.914 23.8656 106.01C23.8972 106.104 23.9099 106.205 23.9027 106.304C23.8956 106.404 23.869 106.501 23.8242 106.591C23.7794 106.681 23.7174 106.761 23.6419 106.826C23.5663 106.891 23.4786 106.942 23.3835 106.973C22.3793 107.311 21.3537 107.582 20.3137 107.784C20.2664 107.794 20.2187 107.801 20.1705 107.805L20.1671 107.798ZM11.0866 107.072C10.9868 107.073 10.8879 107.053 10.7967 107.012C10.3915 106.848 9.98993 106.663 9.59877 106.457C9.03195 106.158 8.48379 105.826 7.95732 105.462C7.86995 105.407 7.79452 105.335 7.73568 105.251C7.67684 105.166 7.63578 105.07 7.61499 104.969C7.59418 104.869 7.59409 104.764 7.61469 104.664C7.63528 104.562 7.67615 104.467 7.73483 104.382C7.7935 104.298 7.86873 104.225 7.95601 104.17C8.04327 104.116 8.14071 104.08 8.24249 104.064C8.34427 104.047 8.44824 104.052 8.54809 104.078C8.64795 104.103 8.74164 104.148 8.82345 104.211C9.2985 104.538 9.793 104.837 10.3043 105.105C10.6535 105.287 11.0027 105.454 11.3764 105.604C11.5404 105.671 11.676 105.792 11.76 105.948C11.8441 106.104 11.8714 106.284 11.8371 106.458C11.8027 106.631 11.7091 106.787 11.5722 106.899C11.4352 107.011 11.2635 107.073 11.0866 107.072ZM25.989 105.877C25.8156 105.876 25.648 105.816 25.5133 105.707C25.3786 105.597 25.2849 105.446 25.2475 105.277C25.2102 105.108 25.2314 104.93 25.3077 104.775C25.3841 104.62 25.511 104.495 25.6677 104.42C26.5373 104.022 27.4139 103.568 28.287 103.069L28.3395 103.041C28.5133 102.952 28.7148 102.932 28.9025 102.987C29.0902 103.042 29.2495 103.167 29.3474 103.337C29.4453 103.506 29.4743 103.707 29.4284 103.897C29.3824 104.087 29.2651 104.252 29.1008 104.357L29.0449 104.392C28.1368 104.913 27.2148 105.388 26.3068 105.789C26.2139 105.841 26.1118 105.873 26.0065 105.884L25.989 105.877ZM6.06089 103.6C5.9578 103.6 5.85566 103.58 5.76076 103.54C5.66585 103.5 5.5802 103.44 5.50909 103.365C4.76828 102.587 4.10288 101.741 3.52185 100.837C3.42394 100.668 3.39492 100.467 3.4408 100.277C3.48669 100.087 3.60396 99.922 3.76831 99.8166C3.93266 99.7101 4.13151 99.6713 4.3236 99.7081C4.51569 99.7449 4.68632 99.8544 4.80011 100.013C5.33075 100.834 5.93635 101.604 6.60919 102.315C6.71303 102.421 6.78293 102.558 6.81012 102.704C6.8373 102.85 6.82058 103.002 6.76203 103.14C6.70348 103.277 6.60568 103.393 6.48095 103.475C6.35623 103.557 6.2101 103.6 6.06089 103.6ZM31.357 102.88C31.195 102.876 31.0386 102.82 30.9106 102.721C30.7826 102.621 30.6897 102.484 30.6453 102.328C30.6008 102.173 30.6073 102.006 30.6637 101.854C30.7201 101.702 30.8235 101.573 30.9588 101.483L32.1916 100.722C32.6572 100.435 33.123 100.151 33.5886 99.8663C33.6737 99.8136 33.7686 99.7778 33.8675 99.7619C33.9664 99.7459 34.0675 99.7499 34.1649 99.7738C34.2623 99.7967 34.3543 99.8395 34.4352 99.8982C34.516 99.9579 34.5844 100.032 34.6363 100.118C34.7415 100.29 34.7744 100.496 34.728 100.693C34.6815 100.889 34.5595 101.059 34.3884 101.166L32.9914 102.014L31.7515 102.782C31.6373 102.85 31.5072 102.887 31.3744 102.887L31.357 102.88ZM60.7287 102.374C60.583 102.377 60.4395 102.337 60.3156 102.26C60.1917 102.183 60.0927 102.073 60.0302 101.941C59.9603 101.797 59.887 101.654 59.8137 101.511C59.4472 100.796 59.0046 100.121 58.4935 99.4992C58.3648 99.344 58.3031 99.1436 58.3221 98.9425C58.3411 98.7415 58.4392 98.5562 58.5948 98.4275C58.7504 98.2987 58.9508 98.237 59.1519 98.256C59.3529 98.275 59.5382 98.3731 59.6669 98.5287C60.249 99.2345 60.7526 100.002 61.1688 100.816C61.2491 100.97 61.3259 101.124 61.3992 101.281C61.4559 101.398 61.4817 101.528 61.4741 101.657C61.4664 101.788 61.4257 101.913 61.3556 102.022C61.2856 102.133 61.1886 102.222 61.0739 102.284C60.9592 102.345 60.8308 102.377 60.7007 102.374H60.7287ZM36.6306 99.6843C36.4627 99.6852 36.2994 99.6295 36.1662 99.5281C36.033 99.4257 35.9373 99.2825 35.8939 99.1203C35.8504 98.9583 35.8618 98.7863 35.9262 98.6313C35.9906 98.4763 36.1043 98.347 36.2499 98.2633C37.2383 97.694 38.1393 97.2155 38.9985 96.779C39.1791 96.6864 39.3891 96.6693 39.5823 96.7315C39.7755 96.7937 39.9361 96.9301 40.0287 97.1108C40.1213 97.2914 40.1385 97.5014 40.0763 97.6946C40.014 97.8878 39.8776 98.0484 39.6969 98.141C38.8623 98.5567 37.9891 99.0282 37.0287 99.5838C36.9088 99.6534 36.7728 99.6902 36.634 99.6922L36.6306 99.6843ZM2.75352 98.4659C2.60411 98.4646 2.45832 98.4196 2.33419 98.3364C2.21005 98.2533 2.11302 98.1356 2.05502 97.9979C1.64285 97.0109 1.31454 95.991 1.07362 94.9489C1.02731 94.7521 1.06111 94.545 1.16754 94.373C1.27397 94.201 1.44432 94.0785 1.64115 94.0322C1.83798 93.9858 2.04514 94.0197 2.21708 94.126C2.389 94.2325 2.51161 94.4029 2.55793 94.5997C2.78162 95.554 3.083 96.4885 3.45901 97.3936C3.53666 97.5799 3.53724 97.7892 3.46063 97.9759C3.38401 98.1625 3.23646 98.3111 3.05038 98.3891C2.95686 98.4367 2.85473 98.4653 2.75003 98.4728L2.75352 98.4659ZM56.8624 97.694C56.7049 97.6934 56.5514 97.6447 56.4224 97.5543C55.6351 97.0006 54.7808 96.5488 53.88 96.2097C53.691 96.1379 53.5383 95.994 53.4554 95.8096C53.3725 95.6253 53.3664 95.4155 53.4381 95.2266C53.5099 95.0377 53.6538 94.8849 53.8382 94.8021C54.0225 94.7192 54.2323 94.713 54.4212 94.7848C55.4417 95.1712 56.4096 95.684 57.3025 96.311C57.4409 96.4021 57.5457 96.5357 57.6013 96.6918C57.6567 96.8478 57.6599 97.0178 57.6101 97.1757C57.5604 97.3336 57.4604 97.471 57.3255 97.5672C57.1906 97.6632 57.028 97.7126 56.8624 97.708V97.694ZM42.1522 96.9641C41.9749 96.9637 41.8033 96.9014 41.667 96.7881C41.5307 96.6748 41.4382 96.5174 41.4055 96.3432C41.3728 96.1689 41.4019 95.9887 41.4879 95.8336C41.5738 95.6786 41.7112 95.5584 41.8763 95.4937C42.8593 95.1068 43.8645 94.7791 44.8868 94.5123C45.0827 94.4624 45.2905 94.4922 45.4644 94.5953C45.6382 94.6985 45.764 94.8665 45.814 95.0624C45.864 95.2583 45.8342 95.4661 45.731 95.64C45.6278 95.8139 45.4599 95.9397 45.264 95.9897C44.302 96.2391 43.356 96.5471 42.4316 96.9117C42.3418 96.949 42.2458 96.9692 42.1487 96.9711L42.1522 96.9641ZM51.1733 95.5217H51.0755C50.1127 95.4 49.1393 95.3847 48.1732 95.4763C47.9717 95.4953 47.771 95.4334 47.6151 95.3044C47.4592 95.1755 47.361 94.9897 47.342 94.7882C47.323 94.5868 47.3849 94.3861 47.5138 94.2302C47.6429 94.0743 47.8285 93.9761 48.03 93.9571C49.1079 93.8573 50.1935 93.8749 51.2675 94.0094C51.4651 94.0271 51.6479 94.1212 51.7772 94.2717C51.9064 94.4221 51.9718 94.617 51.9595 94.8149C51.9472 95.0129 51.8582 95.1982 51.7114 95.3316C51.5646 95.4648 51.3714 95.5355 51.1733 95.5287V95.5217ZM1.37047 92.4972C1.17898 92.4978 0.994271 92.4263 0.853166 92.2968C0.712059 92.1674 0.624945 91.9895 0.609135 91.7987C0.584688 91.4146 0.574219 91.0268 0.574219 90.6427C0.574599 89.959 0.611888 89.2758 0.68596 88.5961C0.708189 88.3952 0.809361 88.2112 0.967208 88.0847C1.12506 87.9584 1.32666 87.8999 1.52766 87.9221C1.72866 87.9443 1.91259 88.0454 2.039 88.2033C2.1654 88.3611 2.22391 88.5627 2.20169 88.7638C2.13167 89.3876 2.09672 90.0149 2.09693 90.6427C2.09693 90.9919 2.09692 91.3412 2.12836 91.6904C2.14091 91.8896 2.07473 92.0858 1.9441 92.2366C1.81346 92.3876 1.6288 92.4811 1.42986 92.4972H1.37047ZM1.96772 86.3959C1.91142 86.3953 1.8553 86.3894 1.80008 86.3784C1.60327 86.3335 1.43235 86.2122 1.32494 86.0412C1.21753 85.8702 1.18242 85.6637 1.22731 85.4668C1.45781 84.447 1.74068 83.4272 2.07246 82.4319C2.13638 82.2402 2.27386 82.0817 2.45462 81.9912C2.63539 81.9009 2.84465 81.8861 3.03639 81.9499C3.22813 82.0138 3.38662 82.1513 3.477 82.3321C3.56739 82.5129 3.58227 82.7221 3.51836 82.9138C3.20109 83.8625 2.93184 84.8265 2.71161 85.8021C2.67418 85.9724 2.57965 86.1249 2.44371 86.2342C2.30777 86.3434 2.13862 86.4029 1.96422 86.4028L1.96772 86.3959ZM3.913 80.5704C3.78571 80.571 3.66029 80.5396 3.54825 80.4792C3.43619 80.4188 3.34108 80.3313 3.2716 80.2246C3.20211 80.118 3.16049 79.9956 3.15051 79.8687C3.14055 79.7418 3.16254 79.6145 3.21451 79.4982C3.6371 78.5518 4.11559 77.6088 4.63598 76.7042C4.68328 76.6137 4.74832 76.5335 4.82727 76.4685C4.90622 76.4036 4.99743 76.3553 5.09547 76.3263C5.19351 76.2975 5.29637 76.2885 5.39791 76.3003C5.49945 76.3119 5.59763 76.3439 5.68654 76.3944C5.77543 76.4448 5.85325 76.5127 5.91539 76.5938C5.97752 76.675 6.0227 76.7678 6.04818 76.8668C6.07367 76.9658 6.07896 77.0689 6.06375 77.1699C6.04853 77.271 6.01309 77.368 5.95959 77.4551C5.46366 78.3282 5.00964 79.2293 4.60451 80.1303C4.54399 80.2638 4.44625 80.3771 4.32296 80.4564C4.19968 80.5356 4.05609 80.5776 3.90951 80.5773L3.913 80.5704ZM6.94101 75.2304C6.80211 75.2294 6.66608 75.1907 6.54754 75.1183C6.42902 75.0459 6.33247 74.9426 6.26822 74.8194C6.20396 74.6962 6.17443 74.558 6.18282 74.4194C6.19121 74.2807 6.23719 74.1469 6.31583 74.0324C6.90606 73.1872 7.54521 72.3456 8.21926 71.5354C8.28086 71.4521 8.35875 71.3823 8.44824 71.3302C8.53773 71.2782 8.63692 71.2449 8.73972 71.2324C8.84251 71.22 8.94674 71.2286 9.04608 71.2579C9.14542 71.287 9.23776 71.3362 9.31744 71.4023C9.39712 71.4685 9.46251 71.5502 9.50954 71.6424C9.55658 71.7347 9.5843 71.8355 9.59101 71.9388C9.59773 72.0422 9.58328 72.1458 9.54859 72.2434C9.5139 72.341 9.45968 72.4304 9.38923 72.5062C8.74312 73.285 8.13191 74.0918 7.56613 74.9021C7.49685 75.0053 7.40329 75.0897 7.29366 75.1482C7.18403 75.2066 7.06175 75.2373 6.9375 75.2374L6.94101 75.2304ZM10.863 70.4981C10.7135 70.497 10.5675 70.452 10.4432 70.3687C10.3189 70.2854 10.2218 70.1676 10.1638 70.0298C10.1058 69.8919 10.0895 69.7399 10.117 69.5929C10.1444 69.4458 10.2144 69.31 10.3182 69.2024C11.0376 68.4689 11.8025 67.739 12.5883 67.044C12.6633 66.9777 12.7506 66.9269 12.8452 66.8944C12.9399 66.8618 13.04 66.8483 13.1399 66.8545C13.2398 66.8606 13.3375 66.8864 13.4274 66.9303C13.5174 66.9741 13.5978 67.0354 13.664 67.1104C13.7303 67.1854 13.7811 67.2727 13.8137 67.3673C13.8462 67.462 13.8597 67.562 13.8536 67.6619C13.8475 67.7618 13.8217 67.8595 13.7778 67.9495C13.7339 68.0394 13.6726 68.1198 13.5977 68.1861C12.8363 68.8566 12.1029 69.5586 11.4078 70.2816C11.3364 70.354 11.2509 70.4112 11.1566 70.4496C11.0624 70.4881 10.9613 70.5069 10.8595 70.505L10.863 70.4981ZM15.4696 66.4189C15.3104 66.4191 15.1551 66.3694 15.0256 66.2769C14.8961 66.1843 14.7988 66.0534 14.7476 65.9027C14.6963 65.752 14.6936 65.5889 14.7397 65.4366C14.786 65.2843 14.8787 65.1501 15.0051 65.0533C15.8188 64.4281 16.6746 63.8135 17.5441 63.2302C17.6272 63.174 17.7204 63.1347 17.8186 63.1147C17.9168 63.0946 18.0181 63.0942 18.1164 63.1133C18.2148 63.1325 18.3084 63.1708 18.392 63.2263C18.4755 63.2818 18.5473 63.3531 18.6031 63.4363C18.659 63.5196 18.698 63.613 18.7176 63.7113C18.7373 63.8096 18.7372 63.9108 18.7177 64.0091C18.6982 64.1075 18.6594 64.2009 18.6037 64.2843C18.5479 64.3675 18.4763 64.439 18.3928 64.4945C17.5511 65.0603 16.7234 65.654 15.9481 66.2617C15.8105 66.3691 15.6407 66.4269 15.4661 66.4258L15.4696 66.4189ZM20.5792 62.9893C20.4118 62.9898 20.2489 62.935 20.1158 62.8338C19.9827 62.7325 19.8866 62.5901 19.8425 62.4287C19.7983 62.2673 19.8086 62.0958 19.8717 61.9408C19.9347 61.7859 20.0472 61.656 20.1914 61.5713C21.0785 61.051 21.9971 60.548 22.9296 60.0696C23.0185 60.0237 23.1157 59.9957 23.2154 59.9875C23.3152 59.9791 23.4156 59.9906 23.511 60.021C23.6063 60.0515 23.6947 60.1005 23.7711 60.1651C23.8476 60.2298 23.9105 60.3088 23.9563 60.3978C24.0022 60.4868 24.03 60.5839 24.0384 60.6837C24.0468 60.7834 24.0353 60.8839 24.0049 60.9792C23.9744 61.0745 23.9254 61.163 23.8608 61.2394C23.7961 61.3158 23.717 61.3788 23.6281 61.4247C22.7235 61.8891 21.8294 62.3816 20.9703 62.8845C20.8519 62.9581 20.7151 62.9969 20.5756 62.9962L20.5792 62.9893ZM26.0518 60.1952C25.8775 60.1952 25.7085 60.1354 25.573 60.0258C25.4375 59.9162 25.3436 59.7633 25.3073 59.5928C25.2709 59.4224 25.2941 59.2446 25.3731 59.0892C25.452 58.9337 25.5818 58.8101 25.741 58.7389C26.6805 58.3198 27.6514 57.9181 28.6223 57.5479C28.8096 57.4814 29.0154 57.4905 29.1959 57.5737C29.3765 57.6568 29.5173 57.8072 29.5885 57.9928C29.6596 58.1783 29.6553 58.3844 29.5766 58.5668C29.4979 58.7493 29.3509 58.8938 29.1671 58.9694C28.2207 59.3186 27.2777 59.7237 26.3732 60.1289C26.2706 60.1724 26.1597 60.1927 26.0483 60.1883L26.0518 60.1952Z" fill="#FF667C"/>
<path d="M64.2833 118.852C64.0927 118.851 63.9092 118.778 63.769 118.649C63.6288 118.52 63.542 118.344 63.5255 118.154L63.3787 116.637C63.3588 116.436 63.4196 116.236 63.5476 116.08C63.6757 115.924 63.8605 115.824 64.0615 115.804C64.2625 115.785 64.4632 115.845 64.6194 115.974C64.7756 116.101 64.8746 116.286 64.8945 116.487L65.0411 118.003C65.0508 118.104 65.0402 118.205 65.0102 118.302C64.9802 118.399 64.9313 118.489 64.8663 118.566C64.8013 118.644 64.7217 118.708 64.6317 118.754C64.5419 118.801 64.4436 118.829 64.3427 118.838L64.2833 118.852Z" fill="#FF667C"/>
<path d="M189.66 22.2456L225.427 0.0195312L213.797 31.8115L189.66 22.2456Z" fill="#FF667C"/>
<path d="M199.504 38.0512L208.249 29.6134L205.005 28.3281L199.504 38.0512Z" fill="#E03F3F"/>
<path d="M196.645 25.0152L199.505 38.0491L205.005 28.3261L225.426 0.0195312L196.645 25.0152Z" fill="#EA4969"/>
</svg>
