<svg width="22" height="20" viewBox="0 0 22 20" fill="none" xmlns="http://www.w3.org/2000/svg">
<g clip-path="url(#clip0_1_1102)">
<path d="M8.88672 4.00391H20.5664C20.6966 4.00391 20.8105 3.95508 20.9082 3.85742C21.0059 3.75977 21.0547 3.63932 21.0547 3.49609V2.5C21.0547 2.35677 21.0059 2.23633 20.9082 2.13867C20.8105 2.04102 20.6966 1.99219 20.5664 1.99219H8.88672C8.67839 1.41927 8.32031 0.94401 7.8125 0.566406C7.30469 0.188803 6.71875 0 6.05469 0C5.40365 0 4.82096 0.188803 4.30664 0.566406C3.79232 0.94401 3.4375 1.41927 3.24219 1.99219H1.5625C1.41927 1.99219 1.29883 2.04102 1.20117 2.13867C1.10352 2.23633 1.05469 2.35677 1.05469 2.5V3.49609C1.05469 3.63932 1.10352 3.75977 1.20117 3.85742C1.29883 3.95508 1.41927 4.00391 1.5625 4.00391H3.24219C3.4375 4.58984 3.79232 5.06836 4.30664 5.43945C4.82096 5.81055 5.40365 5.99609 6.05469 5.99609C6.71875 5.99609 7.30469 5.81055 7.8125 5.43945C8.32031 5.06836 8.67839 4.58984 8.88672 4.00391ZM7.07031 3.00781C7.07031 3.28125 6.97266 3.51562 6.77734 3.71094C6.58203 3.90625 6.34115 4.00391 6.05469 4.00391C5.78125 4.00391 5.54688 3.90625 5.35156 3.71094C5.15625 3.51562 5.05859 3.28125 5.05859 3.00781C5.05859 2.72135 5.15625 2.48047 5.35156 2.28516C5.54688 2.08984 5.78125 1.99219 6.05469 1.99219C6.34115 1.99219 6.58203 2.08984 6.77734 2.28516C6.97266 2.48047 7.07031 2.72135 7.07031 3.00781ZM1.05469 16.5039C1.05469 16.3607 1.10352 16.2402 1.20117 16.1426C1.29883 16.0449 1.41927 15.9961 1.5625 15.9961H3.24219C3.4375 15.4102 3.79232 14.9316 4.30664 14.5605C4.82096 14.1895 5.40365 14.0039 6.05469 14.0039C6.71875 14.0039 7.30469 14.1895 7.8125 14.5605C8.32031 14.9316 8.67839 15.4102 8.88672 15.9961H20.5664C20.6966 15.9961 20.8105 16.0449 20.9082 16.1426C21.0059 16.2402 21.0547 16.3607 21.0547 16.5039V17.5C21.0547 17.6432 21.0059 17.7637 20.9082 17.8613C20.8105 17.959 20.6966 18.0078 20.5664 18.0078H8.88672C8.67839 18.5807 8.32031 19.056 7.8125 19.4336C7.30469 19.8112 6.71875 20 6.05469 20C5.40365 20 4.82096 19.8112 4.30664 19.4336C3.79232 19.056 3.4375 18.5807 3.24219 18.0078H1.5625C1.41927 18.0078 1.29883 17.959 1.20117 17.8613C1.10352 17.7637 1.05469 17.6432 1.05469 17.5V16.5039ZM6.05469 18.0078C6.34115 18.0078 6.58203 17.9102 6.77734 17.7148C6.97266 17.5195 7.07031 17.2786 7.07031 16.9922C7.07031 16.7188 6.97266 16.4844 6.77734 16.2891C6.58203 16.0938 6.34115 15.9961 6.05469 15.9961C5.78125 15.9961 5.54688 16.0938 5.35156 16.2891C5.15625 16.4844 5.05859 16.7188 5.05859 16.9922C5.05859 17.2786 5.15625 17.5195 5.35156 17.7148C5.54688 17.9102 5.78125 18.0078 6.05469 18.0078ZM20.5664 9.00391C20.6966 9.00391 20.8105 9.05273 20.9082 9.15039C21.0059 9.24805 21.0547 9.36198 21.0547 9.49219V10.5078C21.0547 10.638 21.0059 10.752 20.9082 10.8496C20.8105 10.9473 20.6966 10.9961 20.5664 10.9961H18.8867C18.6784 11.582 18.3203 12.0638 17.8125 12.4414C17.3047 12.819 16.7188 13.0078 16.0547 13.0078C15.4036 13.0078 14.821 12.819 14.3066 12.4414C13.7923 12.0638 13.4375 11.582 13.2422 10.9961H1.5625C1.41927 10.9961 1.29883 10.9473 1.20117 10.8496C1.10352 10.752 1.05469 10.638 1.05469 10.5078V9.49219C1.05469 9.36198 1.10352 9.24805 1.20117 9.15039C1.29883 9.05273 1.41927 9.00391 1.5625 9.00391H13.2422C13.4375 8.41797 13.7923 7.9362 14.3066 7.55859C14.821 7.18099 15.4036 6.99219 16.0547 6.99219C16.7188 6.99219 17.3047 7.18099 17.8125 7.55859C18.3203 7.9362 18.6784 8.41797 18.8867 9.00391H20.5664ZM15.0586 10C15.0586 10.2734 15.1562 10.5078 15.3516 10.7031C15.5469 10.8984 15.7812 10.9961 16.0547 10.9961C16.3411 10.9961 16.582 10.8984 16.7773 10.7031C16.9727 10.5078 17.0703 10.2734 17.0703 10C17.0703 9.72656 16.9727 9.49219 16.7773 9.29688C16.582 9.10156 16.3411 9.00391 16.0547 9.00391C15.7812 9.00391 15.5469 9.10156 15.3516 9.29688C15.1562 9.49219 15.0586 9.72656 15.0586 10Z" fill="#7A7D9D"/>
</g>
<defs>
<clipPath id="clip0_1_1102">
<rect width="21.25" height="20" fill="white" transform="matrix(1 0 0 -1 0 20)"/>
</clipPath>
</defs>
</svg>
