<svg width="28" height="22" viewBox="0 0 28 22" fill="none" xmlns="http://www.w3.org/2000/svg">
<path d="M7.04688 2.75C7.79167 2.75 8.50065 2.93978 9.17383 3.31934C9.847 3.69889 10.4414 4.11784 10.957 4.57617C11.6875 5.23503 12.5505 5.56445 13.5459 5.56445C14.5413 5.56445 15.4043 5.23503 16.1348 4.57617C16.6504 4.11784 17.2448 3.69889 17.918 3.31934C18.5911 2.93978 19.3001 2.75 20.0449 2.75C20.9329 2.75 21.599 2.86458 22.043 3.09375C22.487 3.32292 22.8092 3.55208 23.0098 3.78125C23.2533 4.06771 23.4466 4.4401 23.5898 4.89844C23.7331 5.35677 23.8047 5.88672 23.8047 6.48828C23.8047 6.83203 23.7367 7.23665 23.6006 7.70215C23.4645 8.16764 23.2461 8.69401 22.9453 9.28125C22.6445 9.85417 22.2793 10.445 21.8496 11.0537C21.4199 11.6624 20.9473 12.2819 20.4316 12.9121C19.9017 13.528 19.3574 14.1296 18.7988 14.7168C18.2259 15.304 17.6566 15.8626 17.0908 16.3926C16.5251 16.9225 15.9772 17.4167 15.4473 17.875C14.9173 18.319 14.4303 18.7201 13.9863 19.0781C13.8861 19.1497 13.8001 19.1963 13.7285 19.2178C13.6569 19.2393 13.5996 19.25 13.5566 19.25C13.4993 19.25 13.4349 19.2393 13.3633 19.2178C13.2917 19.1963 13.2057 19.1497 13.1055 19.0781C12.6615 18.7201 12.1745 18.319 11.6445 17.875C11.1146 17.4167 10.5667 16.9225 10.001 16.3926C9.43522 15.8626 8.87305 15.304 8.31445 14.7168C7.74154 14.1296 7.1901 13.528 6.66016 12.9121C6.14453 12.2819 5.67188 11.6624 5.24219 11.0537C4.8125 10.445 4.44727 9.85417 4.14648 9.28125C3.8457 8.69401 3.62728 8.16764 3.49121 7.70215C3.35514 7.23665 3.28711 6.83203 3.28711 6.48828C3.28711 5.51432 3.6237 4.64779 4.29688 3.88867C4.97005 3.12956 5.88672 2.75 7.04688 2.75ZM7.04688 0C6.02995 0 5.12044 0.186197 4.31836 0.558594C3.51628 0.93099 2.83594 1.42155 2.27734 2.03027C1.71875 2.639 1.28906 3.33008 0.988281 4.10352C0.6875 4.89128 0.537109 5.6862 0.537109 6.48828C0.537109 7.77734 0.93099 9.13086 1.71875 10.5488C2.49219 11.9668 3.44108 13.3418 4.56543 14.6738C5.68978 16.0059 6.875 17.252 8.12109 18.4121C9.36719 19.5579 10.4629 20.5033 11.4082 21.248C12.0671 21.7493 12.7832 22 13.5566 22C14.3301 22 15.0391 21.7493 15.6836 21.248C16.6289 20.5033 17.7246 19.5579 18.9707 18.4121C20.2168 17.252 21.402 16.0059 22.5264 14.6738C23.6507 13.3418 24.5996 11.9668 25.373 10.5488C26.1608 9.13086 26.5547 7.77734 26.5547 6.48828C26.5547 5.6862 26.4401 4.89128 26.2109 4.10352C25.9961 3.33008 25.6344 2.639 25.126 2.03027C24.6175 1.42155 23.9479 0.93099 23.1172 0.558594C22.2865 0.186197 21.2624 0 20.0449 0C19.4147 0 18.8132 0.0859375 18.2402 0.257812C17.6673 0.415365 17.1374 0.619467 16.6504 0.870117C16.1634 1.12077 15.7266 1.39648 15.3398 1.69727C14.9388 1.99805 14.5951 2.27734 14.3086 2.53516C14.0938 2.72135 13.8395 2.81445 13.5459 2.81445C13.2523 2.81445 12.998 2.72135 12.7832 2.53516C12.4967 2.27734 12.1602 1.99805 11.7734 1.69727C11.3724 1.39648 10.9284 1.12077 10.4414 0.870117C9.95443 0.619467 9.42448 0.415365 8.85156 0.257812C8.27865 0.0859375 7.67708 0 7.04688 0Z" fill="#E03F3F"/>
</svg>
