<svg width="13" height="14" viewBox="0 0 13 14" fill="none" xmlns="http://www.w3.org/2000/svg">
<path d="M6.0293 0C5.66471 0 5.30469 0.036458 4.94922 0.109375C4.59375 0.182292 4.25195 0.291667 3.92383 0.4375C3.5957 0.583333 3.28125 0.761067 2.98047 0.970703C2.67969 1.18034 2.39714 1.42188 2.13281 1.69531C1.8776 1.95964 1.64974 2.2513 1.44922 2.57031C1.2487 2.88932 1.08008 3.222 0.943359 3.56836C0.806641 3.91471 0.701823 4.27018 0.628906 4.63477C0.55599 5.00846 0.519531 5.38672 0.519531 5.76953C0.519531 6.35286 0.615234 6.91797 0.806641 7.46484C0.988932 8.01172 1.2373 8.54492 1.55176 9.06445C1.86621 9.58398 2.22396 10.0944 2.625 10.5957C3.02604 11.1061 3.44076 11.6165 3.86914 12.127C4.02409 12.3184 4.23828 12.5599 4.51172 12.8516C4.78516 13.1432 5.05404 13.4258 5.31836 13.6992C5.50977 13.8997 5.74447 14 6.02246 14C6.30046 14 6.53516 13.8997 6.72656 13.6992C6.99089 13.4258 7.25977 13.1432 7.5332 12.8516C7.80664 12.5599 8.02083 12.3184 8.17578 12.127C8.61328 11.6165 9.03255 11.1061 9.43359 10.5957C9.83464 10.0944 10.1901 9.58398 10.5 9.06445C10.8099 8.54492 11.056 8.01172 11.2383 7.46484C11.4297 6.91797 11.5254 6.35286 11.5254 5.76953C11.5254 5.38672 11.4889 5.00846 11.416 4.63477C11.3431 4.27018 11.2383 3.91471 11.1016 3.56836C10.9648 3.222 10.7962 2.88932 10.5957 2.57031C10.3952 2.2513 10.1673 1.95964 9.91211 1.69531C9.6569 1.42188 9.37891 1.18034 9.07812 0.970703C8.77734 0.761067 8.46061 0.583333 8.12793 0.4375C7.79525 0.291667 7.45573 0.182292 7.10938 0.109375C6.75391 0.036458 6.39388 0 6.0293 0ZM6.0293 7.92969C5.81966 7.92969 5.61914 7.90006 5.42773 7.84082C5.23633 7.78158 5.05404 7.69271 4.88086 7.57422C4.70768 7.45573 4.55729 7.31217 4.42969 7.14355C4.30208 6.97494 4.19727 6.79492 4.11523 6.60352C4.04232 6.40299 3.99447 6.19564 3.97168 5.98145C3.94889 5.76725 3.96029 5.55534 4.00586 5.3457C4.04232 5.13607 4.1084 4.93783 4.2041 4.75098C4.2998 4.56413 4.42057 4.39323 4.56641 4.23828C4.71224 4.09245 4.87402 3.96712 5.05176 3.8623C5.22949 3.75749 5.41862 3.68685 5.61914 3.65039C5.81966 3.60482 6.02246 3.59342 6.22754 3.61621C6.43262 3.639 6.6263 3.69141 6.80859 3.77344C7 3.85547 7.17546 3.96484 7.33496 4.10156C7.49447 4.23828 7.62891 4.39323 7.73828 4.56641C7.85677 4.7487 7.94564 4.94238 8.00488 5.14746C8.06413 5.35254 8.09375 5.5599 8.09375 5.76953C8.09375 6.0612 8.04134 6.33919 7.93652 6.60352C7.83171 6.86784 7.67904 7.10026 7.47852 7.30078C7.28711 7.5013 7.06608 7.65625 6.81543 7.76562C6.56478 7.875 6.30273 7.92969 6.0293 7.92969Z" fill="#E03F3F"/>
</svg>
