<svg width="23" height="18" viewBox="0 0 23 18" fill="none" xmlns="http://www.w3.org/2000/svg">
<g clip-path="url(#clip0_1_106)">
<path d="M0.914062 2.44503C0.914062 2.22238 0.978516 2.0173 1.10742 1.8298C1.23633 1.6423 1.40625 1.51339 1.61719 1.44308L5.80078 0.054409C6.14062 -0.0627785 6.4541 -0.0159035 6.74121 0.195034C7.02832 0.405972 7.17188 0.687222 7.17188 1.03878V15.5583C7.17188 15.781 7.10742 15.986 6.97852 16.1735C6.84961 16.361 6.67969 16.49 6.46875 16.5603L2.28516 17.9489C1.94531 18.0661 1.63184 18.0193 1.34473 17.8083C1.05762 17.5974 0.914062 17.3161 0.914062 16.9646V2.44503ZM8.22656 1.03878C8.22656 0.687222 8.37012 0.405972 8.65723 0.195034C8.94434 -0.0159035 9.25781 -0.0627785 9.59766 0.054409L13.7812 1.44308C13.9922 1.51339 14.1621 1.6423 14.291 1.8298C14.4199 2.0173 14.4844 2.22238 14.4844 2.44503V16.9646C14.4844 17.3161 14.3408 17.5974 14.0537 17.8083C13.7666 18.0193 13.4531 18.0661 13.1133 17.9489L8.92969 16.5603C8.71875 16.49 8.54883 16.361 8.41992 16.1735C8.29102 15.986 8.22656 15.781 8.22656 15.5583V1.03878ZM15.5391 2.44503C15.5391 2.22238 15.6035 2.0173 15.7324 1.8298C15.8613 1.6423 16.0312 1.51339 16.2422 1.44308L20.4258 0.054409C20.7656 -0.0627785 21.0791 -0.0159035 21.3662 0.195034C21.6533 0.405972 21.7969 0.687222 21.7969 1.03878V15.5583C21.7969 15.781 21.7324 15.986 21.6035 16.1735C21.4746 16.361 21.3047 16.49 21.0938 16.5603L16.9102 17.9489C16.5703 18.0661 16.2568 18.0193 15.9697 17.8083C15.6826 17.5974 15.5391 17.3161 15.5391 16.9646V2.44503Z" fill="#7A7D9D"/>
</g>
<defs>
<clipPath id="clip0_1_106">
<rect width="22.5" height="18" fill="white" transform="matrix(1 0 0 -1 0 18)"/>
</clipPath>
</defs>
</svg>
