<svg width="22" height="20" viewBox="0 0 22 20" fill="none" xmlns="http://www.w3.org/2000/svg">
<g clip-path="url(#clip0_1_1041)">
<path d="M15.4883 12.4823C14.7982 12.4172 14.2285 12.7134 13.7793 13.3709C13.3301 14.0285 12.8581 14.4875 12.3633 14.7479C11.9466 14.9562 11.4779 14.9627 10.957 14.7674C10.4232 14.5591 9.91536 14.2856 9.43359 13.9471C8.95182 13.6086 8.54818 13.283 8.22266 12.9705C7.89714 12.645 7.73438 12.4823 7.73438 12.4823C7.73438 12.4823 7.57161 12.3195 7.24609 11.994C6.93359 11.6685 6.60482 11.2648 6.25977 10.783C5.91471 10.3013 5.63151 9.79346 5.41016 9.25961C5.17578 8.72575 5.15625 8.257 5.35156 7.85336C5.66406 7.35857 6.15234 6.88656 6.81641 6.43734C7.48047 5.98812 7.78646 5.41846 7.73438 4.72836C7.69531 4.41586 7.51953 3.94711 7.20703 3.32211C6.88151 2.69711 6.50065 2.1014 6.06445 1.535C5.62826 0.968592 5.17578 0.529139 4.70703 0.216639C4.22526 -0.0958614 3.8151 -0.0958614 3.47656 0.216639C1.96615 1.59685 1.04492 2.68409 0.712891 3.47836C0.380859 4.27263 0.214844 5.22966 0.214844 6.34945C0.188802 7.32601 0.423177 8.32862 0.917969 9.35726C1.42578 10.3989 1.98893 11.3462 2.60742 12.1991C3.22591 13.0519 3.79557 13.7518 4.31641 14.2987C4.83724 14.8455 5.09766 15.119 5.09766 15.119C5.22786 15.2492 5.57292 15.5812 6.13281 16.1151C6.69271 16.6489 7.38607 17.2088 8.21289 17.7948C9.03971 18.3807 9.94141 18.9015 10.918 19.3573C11.9076 19.813 12.8906 20.0278 13.8672 20.0018C14.987 20.0018 15.944 19.8358 16.7383 19.5037C17.5326 19.1717 18.6198 18.2505 20 16.7401C20.3125 16.4015 20.319 15.9914 20.0195 15.5096C19.707 15.0409 19.2741 14.5884 18.7207 14.1522C18.1673 13.716 17.5781 13.3351 16.9531 13.0096C16.3151 12.6971 15.8268 12.5213 15.4883 12.4823Z" fill="#2D2452"/>
</g>
<defs>
<clipPath id="clip0_1_1041">
<rect width="21.25" height="20" fill="white" transform="matrix(1 0 0 -1 0 20)"/>
</clipPath>
</defs>
</svg>
