<svg width="18" height="15" viewBox="0 0 18 15" fill="none" xmlns="http://www.w3.org/2000/svg">
<g clip-path="url(#clip0_1_938)">
<path d="M17.7012 7.80725C17.9004 7.60803 18 7.3678 18 7.08655C18 6.8053 17.9004 6.56506 17.7012 6.36584L11.9883 0.635376C11.7891 0.436157 11.5459 0.336548 11.2588 0.336548C10.9717 0.336548 10.7285 0.436157 10.5293 0.635376C10.3301 0.834595 10.2305 1.07776 10.2305 1.36487C10.2305 1.65198 10.3301 1.89514 10.5293 2.09436L13.623 5.18811C13.7871 5.35217 13.8252 5.53967 13.7373 5.75061C13.6494 5.96155 13.4941 6.06702 13.2715 6.06702H1.01953C0.738281 6.06702 0.498047 6.16663 0.298828 6.36584C0.0996094 6.56506 0 6.8053 0 7.08655C0 7.3678 0.0996094 7.60803 0.298828 7.80725C0.498047 8.00647 0.738281 8.10608 1.01953 8.10608H13.2715C13.4941 8.10608 13.6494 8.21155 13.7373 8.42249C13.8252 8.63342 13.7871 8.82092 13.623 8.98499L10.5293 12.0787C10.3301 12.278 10.2305 12.5182 10.2305 12.7994C10.2305 13.0807 10.3301 13.3209 10.5293 13.5201C10.7285 13.7194 10.9717 13.819 11.2588 13.819C11.5459 13.819 11.7891 13.7194 11.9883 13.5201L17.7012 7.80725Z" fill="white"/>
</g>
<defs>
<clipPath id="clip0_1_938">
<rect width="14.63" height="18" fill="white" transform="matrix(0 -1 -1 0 18 14.63)"/>
</clipPath>
</defs>
</svg>
