<svg width="18" height="16" viewBox="0 0 18 16" fill="none" xmlns="http://www.w3.org/2000/svg">
<g clip-path="url(#clip0_1_2113)">
<g clip-path="url(#clip1_1_2113)">
<g clip-path="url(#clip2_1_2113)">
<path d="M9.48047 9.64844H2.82031V6.98047H9.48047C9.87109 6.98047 10.1406 7.05078 10.2812 7.17187C10.4219 7.28906 10.5 7.51172 10.5 7.83984V8.80078C10.5 9.14062 10.4219 9.35937 10.2812 9.48047C10.1406 9.60156 9.87109 9.64844 9.48047 9.64844ZM9.94141 4.46875H0V15.8789H2.82031V12.1719H8.01953L10.4883 15.8789H13.6484L10.9297 12.1484C11.9297 12 12.3789 11.6914 12.7617 11.1719C13.1289 10.6602 13.3203 9.83984 13.3203 8.73828V7.87891C13.3203 7.23047 13.25 6.71875 13.1289 6.32031C13.0117 5.92969 12.8086 5.57812 12.5195 5.28125C12.2188 4.98828 11.8789 4.78125 11.4688 4.64844C11.0586 4.53125 10.5586 4.46094 9.92969 4.46094L9.94141 4.46875Z" fill="#7A7D9D"/>
<path d="M15.8281 4.46094C17.0312 4.46094 18 3.48828 18 2.28906C18 1.08984 17.0312 0.121094 15.8281 0.121094C14.6289 0.121094 13.6602 1.08984 13.6602 2.28906C13.6602 3.48828 14.6289 4.46094 15.8281 4.46094Z" fill="#7A7D9D"/>
</g>
</g>
</g>
<defs>
<clipPath id="clip0_1_2113">
<rect width="18" height="16" fill="white"/>
</clipPath>
<clipPath id="clip1_1_2113">
<rect width="18" height="16" fill="white"/>
</clipPath>
<clipPath id="clip2_1_2113">
<rect width="18" height="16" fill="white"/>
</clipPath>
</defs>
</svg>
