<svg width="18" height="22" viewBox="0 0 18 22" fill="none" xmlns="http://www.w3.org/2000/svg">
<g clip-path="url(#clip0_1_52)">
<path d="M0.0664062 11C0.0664062 10.6133 0.202474 10.2874 0.474609 10.0225C0.746745 9.75749 1.06901 9.625 1.44141 9.625C1.82812 9.625 2.15397 9.75749 2.41895 10.0225C2.68392 10.2874 2.81641 10.6133 2.81641 11V20.625C2.81641 21.0117 2.68392 21.3376 2.41895 21.6025C2.15397 21.8675 1.82812 22 1.44141 22C1.06901 22 0.746745 21.8675 0.474609 21.6025C0.202474 21.3376 0.0664062 21.0117 0.0664062 20.625V11ZM6.94141 1.375C6.94141 0.988281 7.07747 0.662436 7.34961 0.397461C7.62174 0.132486 7.94401 0 8.31641 0C8.70312 0 9.02897 0.132486 9.29395 0.397461C9.55892 0.662436 9.69141 0.988281 9.69141 1.375V20.625C9.69141 21.0117 9.55892 21.3376 9.29395 21.6025C9.02897 21.8675 8.70312 22 8.31641 22C7.94401 22 7.62174 21.8675 7.34961 21.6025C7.07747 21.3376 6.94141 21.0117 6.94141 20.625V1.375ZM13.8164 5.5C13.8164 5.11328 13.9525 4.78744 14.2246 4.52246C14.4967 4.25749 14.819 4.125 15.1914 4.125C15.5781 4.125 15.904 4.25749 16.1689 4.52246C16.4339 4.78744 16.5664 5.11328 16.5664 5.5V20.625C16.5664 21.0117 16.4339 21.3376 16.1689 21.6025C15.904 21.8675 15.5781 22 15.1914 22C14.819 22 14.4967 21.8675 14.2246 21.6025C13.9525 21.3376 13.8164 21.0117 13.8164 20.625V5.5Z" fill="#E03F3F"/>
</g>
<defs>
<clipPath id="clip0_1_52">
<rect width="17.88" height="22" fill="white" transform="matrix(1 0 0 -1 0 22)"/>
</clipPath>
</defs>
</svg>
