<svg width="18" height="16" viewBox="0 0 18 16" fill="none" xmlns="http://www.w3.org/2000/svg">
<g clip-path="url(#clip0_1_2099)">
<g clip-path="url(#clip1_1_2099)">
<g clip-path="url(#clip2_1_2099)">
<path d="M16.4733 0.141295C14.0987 1.19914 3.91677 5.73545 1.1035 6.97181C-0.783211 7.76374 0.321293 8.50627 0.321293 8.50627C0.321293 8.50627 1.93183 9.10016 3.31251 9.54564C4.69299 9.99111 5.42926 9.49623 5.42926 9.49623L11.9177 4.79406C14.2186 3.11119 13.6664 4.49701 13.1141 5.09111C11.9177 6.37813 9.93895 8.40725 8.28229 10.0407C7.54602 10.7336 7.91406 11.3275 8.23636 11.6246C9.43273 12.7136 12.7001 14.9409 12.884 15.0893C13.8561 15.8296 15.7683 16.8951 16.0592 14.6439L17.2096 6.873C17.5778 4.24978 17.9459 1.82438 17.9918 1.13147C18.13 -0.551617 16.4733 0.141295 16.4733 0.141295Z" fill="#7A7D9D"/>
</g>
</g>
</g>
<defs>
<clipPath id="clip0_1_2099">
<rect width="18" height="16" fill="white"/>
</clipPath>
<clipPath id="clip1_1_2099">
<rect width="18" height="16" fill="white"/>
</clipPath>
<clipPath id="clip2_1_2099">
<rect width="18" height="16" fill="white"/>
</clipPath>
</defs>
</svg>
