<svg width="22" height="14" viewBox="0 0 22 14" fill="none" xmlns="http://www.w3.org/2000/svg">
<g clip-path="url(#clip0_1_2106)">
<g clip-path="url(#clip1_1_2106)">
<g clip-path="url(#clip2_1_2106)">
<path d="M10.7646 13.4452H12.0792C12.0792 13.4452 12.4766 13.3997 12.6787 13.1732C12.8658 12.9653 12.8589 12.5751 12.8589 12.5751C12.8589 12.5751 12.8327 10.748 13.6523 10.4788C14.4595 10.2139 15.4963 12.2447 16.595 13.0265C17.4256 13.6176 18.0568 13.488 18.0568 13.488L20.9953 13.4452C20.9953 13.4452 22.5327 13.347 21.8039 12.0952C21.7448 11.9926 21.379 11.1695 19.6189 9.47768C17.7762 7.70609 18.0238 7.99376 20.2432 4.93051C21.5949 3.06493 22.1353 1.92565 21.9662 1.43861C21.8053 0.974348 20.8111 1.09682 20.8111 1.09682L17.5053 1.11676C17.5053 1.11676 17.2606 1.08258 17.0777 1.19508C16.9003 1.30616 16.7862 1.5625 16.7862 1.5625C16.7862 1.5625 16.2623 3.00655 15.5637 4.23412C14.091 6.82457 13.501 6.96128 13.2604 6.80036C12.7007 6.42582 12.841 5.29366 12.841 4.49046C12.841 1.97977 13.2082 0.933048 12.1246 0.662469C11.7643 0.57275 11.5003 0.512938 10.5803 0.502969C9.4005 0.490152 8.4008 0.507241 7.83563 0.793486C7.45885 0.984316 7.16871 1.41012 7.3461 1.43433C7.56474 1.46424 8.05977 1.57247 8.32242 1.94274C8.66207 2.41981 8.64969 3.49359 8.64969 3.49359C8.64969 3.49359 8.84496 6.44861 8.19453 6.81602C7.74763 7.06809 7.13571 6.55399 5.82248 4.20279C5.15006 2.99942 4.64127 1.66789 4.64127 1.66789C4.64127 1.66789 4.54364 1.42009 4.369 1.28765C4.15724 1.12673 3.86022 1.07546 3.86022 1.07546L0.716735 1.0954C0.716735 1.0954 0.245075 1.10964 0.0718122 1.32183C-0.0821991 1.51124 0.0594363 1.90144 0.0594363 1.90144C0.0594363 1.90144 2.52087 7.86417 5.30682 10.8705C7.86313 13.6261 10.7646 13.4452 10.7646 13.4452Z" fill="#7A7D9D"/>
</g>
</g>
</g>
<defs>
<clipPath id="clip0_1_2106">
<rect width="22" height="14" fill="white"/>
</clipPath>
<clipPath id="clip1_1_2106">
<rect width="22" height="14" fill="white"/>
</clipPath>
<clipPath id="clip2_1_2106">
<rect width="22" height="14" fill="white"/>
</clipPath>
</defs>
</svg>
