<svg width="30" height="30" viewBox="0 0 30 30" fill="none" xmlns="http://www.w3.org/2000/svg">
<path d="M18.8087 27.1729C18.2032 26.958 17.627 26.7334 17.0802 26.499C16.5333 26.2647 15.9913 25.9961 15.4542 25.6934C14.9171 25.3906 14.3897 25.0635 13.8722 24.7119C13.3546 24.3604 12.8272 23.9649 12.2901 23.5254C11.753 23.0859 11.2061 22.6123 10.6495 22.1045C10.0929 21.5967 9.50204 21.0303 8.87704 20.4053C7.00204 18.5108 5.45419 16.5283 4.23349 14.458C3.01278 12.3877 2.27548 10.4834 2.02157 8.74512C1.88485 7.88575 1.90927 7.26075 2.09482 6.87012C2.28036 6.4795 2.92001 5.70802 4.01376 4.55567C4.42392 4.12598 4.81454 3.73048 5.18564 3.36915C5.55673 3.00782 5.85946 2.71973 6.09384 2.50489C6.32821 2.29005 6.4747 2.18262 6.53329 2.18262C6.70907 2.18262 7.33407 3.17384 8.40829 5.15626C9.48251 7.13868 10.0196 8.29591 10.0196 8.62794C10.0196 8.95997 9.66806 9.54591 8.96493 10.3857C8.49618 10.9326 8.22763 11.3525 8.15927 11.6455C8.09091 11.9385 8.16415 12.3975 8.37899 13.0225C8.69149 13.9209 9.94149 15.4639 12.129 17.6514C14.3165 19.8389 15.8692 21.0889 16.7872 21.4014C17.4317 21.6358 17.9054 21.709 18.2081 21.6211C18.5108 21.5332 19.004 21.1865 19.6876 20.5811L21.1817 19.2627L24.4044 21.1084C26.5528 22.3389 27.627 23.0469 27.627 23.2324C27.627 23.418 26.8458 24.2529 25.2833 25.7373C24.5802 26.4014 24.0333 26.8799 23.6427 27.1729C23.252 27.4658 22.8077 27.666 22.3097 27.7734C21.8116 27.8809 21.3282 27.8858 20.8595 27.7881C20.3907 27.6904 19.7071 27.4854 18.8087 27.1729Z" fill="white"/>
</svg>
